<?xml version="1.0" encoding="utf-8"?>
<!-- Generator: Adobe Illustrator 25.2.1, SVG Export Plug-In . SVG Version: 6.00 Build 0)  -->
<svg version="1.1" id="Layer_1" xmlns="http://www.w3.org/2000/svg" xmlns:xlink="http://www.w3.org/1999/xlink" x="0px" y="0px"
	 viewBox="0 0 43 42" style="enable-background:new 0 0 43 42;" xml:space="preserve">
<style type="text/css">
	.st0{fill-rule:evenodd;clip-rule:evenodd;}
</style>
<path id="Kształt_1267" class="st0" d="M7.7,16.8h24.6c2.4-0.2,4.5,1.7,4.6,4.1c0,0.2,0,0.4,0,0.5v2.3h3.1c1.7,0,3.1-1.4,3.1-3.1
	v-9.9H7.7V16.8z M39.9,0H10.8C9.1,0,7.7,1.4,7.7,3.1v3.1H43V3.1C43,1.4,41.6,0,39.9,0z M32,18.3H3.1c-1.7,0-3.1,1.4-3.1,3.1v17.6
	C0,40.6,1.4,42,3.1,42h29.2c1.7,0,3.1-1.4,3.1-3.1V21.7C35.2,19.9,33.8,18.4,32,18.3z M15.4,28.3v1.5h-4.6V26H13
	C14.3,26,15.4,27,15.4,28.3z M6.9,26h2.3v3.8H4.6v-1.5C4.6,27,5.6,26,6.9,26L6.9,26z M4.6,32.8v-1.5h4.6v3.8H6.9
	C5.6,35.1,4.6,34.1,4.6,32.8C4.6,32.8,4.6,32.8,4.6,32.8L4.6,32.8z M13.1,35.1h-2.3v-3.8h4.6v1.5C15.4,34.1,14.3,35.1,13.1,35.1
	C13.1,35.1,13.1,35.1,13.1,35.1L13.1,35.1z M30.7,26c0,0.4-0.3,0.8-0.8,0.8H23c-0.4,0-0.8-0.3-0.8-0.8v-3.1c0-0.4,0.3-0.8,0.8-0.8
	H30c0.4,0,0.8,0.3,0.8,0.8V26z"/>
</svg>
