<svg xmlns="http://www.w3.org/2000/svg" width="43" height="42" viewBox="0 0 43 42">
  <metadata><?xpacket begin="﻿" id="W5M0MpCehiHzreSzNTczkc9d"?>
<x:xmpmeta xmlns:x="adobe:ns:meta/" x:xmptk="Adobe XMP Core 5.6-c142 79.160924, 2017/07/13-01:06:39        ">
   <rdf:RDF xmlns:rdf="http://www.w3.org/1999/02/22-rdf-syntax-ns#">
      <rdf:Description rdf:about=""/>
   </rdf:RDF>
</x:xmpmeta>
                                                                                                    
                                                                                                    
                                                                                                    
                                                                                                    
                                                                                                    
                                                                                                    
                                                                                                    
                                                                                                    
                                                                                                    
                                                                                                    
                                                                                                    
                                                                                                    
                                                                                                    
                                                                                                    
                                                                                                    
                                                                                                    
                                                                                                    
                                                                                                    
                                                                                                    
                                                                                                    
                           
<?xpacket end="w"?></metadata>
<defs>
    <style>
      .cls-1 {
        fill: #fff;
        fill-rule: evenodd;
      }
    </style>
  </defs>
  <path id="Kształt_1267" data-name="Kształt 1267" class="cls-1" d="M511.679,639.8H536.25a4.338,4.338,0,0,1,4.607,4.582v2.291h3.071A3.072,3.072,0,0,0,547,643.618v-9.927H511.679V639.8ZM543.928,623H514.75a3.071,3.071,0,0,0-3.071,3.054v3.055H547v-3.055A3.072,3.072,0,0,0,543.928,623Zm-7.94,18.327H507.071A3.072,3.072,0,0,0,504,644.382v17.563A3.072,3.072,0,0,0,507.071,665H536.25a3.072,3.072,0,0,0,3.071-3.055V644.674A3.568,3.568,0,0,0,535.988,641.327Zm-16.631,9.927v1.528H514.75v-3.818h2.3A2.3,2.3,0,0,1,519.357,651.254Zm-8.446-2.29h2.3v3.818h-4.607v-1.528A2.3,2.3,0,0,1,510.911,648.964Zm-2.3,6.872v-1.527h4.607v3.818h-2.3A2.3,2.3,0,0,1,508.607,655.836Zm8.446,2.291h-2.3v-3.818h4.607v1.527A2.3,2.3,0,0,1,517.053,658.127Zm17.661-9.163a0.768,0.768,0,0,1-.768.763h-6.91a0.768,0.768,0,0,1-.768-0.763v-3.055a0.768,0.768,0,0,1,.768-0.764h6.91a0.769,0.769,0,0,1,.768.764v3.055Z" transform="translate(-504 -623)"/>
</svg>
