<?xml version="1.0" encoding="utf-8"?>
<!-- Generator: Adobe Illustrator 25.2.1, SVG Export Plug-In . SVG Version: 6.00 Build 0)  -->
<svg version="1.1" id="Layer_1" xmlns="http://www.w3.org/2000/svg" xmlns:xlink="http://www.w3.org/1999/xlink" x="0px" y="0px"
	 viewBox="0 0 35 53" style="enable-background:new 0 0 35 53;" xml:space="preserve">
<style type="text/css">
	.st0{fill-rule:evenodd;clip-rule:evenodd;}
</style>
<path id="ic-compass" class="st0" d="M24,1.9c0,0.8,0,0.8-1.1,0.8h-3.3c-1.1,0-1.1,0-1.1-0.8l0,0c0-1.1,1-1.9,2.7-1.9l0,0
	C22.9,0,24,0.9,24,1.9L24,1.9L24,1.9z M26.3,12.1L20,14.9c-0.6,0.3-1.1,0.8-1.4,1.5l-2.8,6.4c-0.2,0.6,0,0.8,0.6,0.6l6.4-2.8
	c0.6-0.3,1.1-0.8,1.4-1.5l2.8-6.4C27.1,12.1,26.9,11.8,26.3,12.1L26.3,12.1z M21.3,19.4c-0.9,0-1.7-0.7-1.7-1.6
	c0-0.9,0.7-1.7,1.6-1.7c0.9,0,1.7,0.7,1.7,1.6c0,0,0,0,0,0C22.9,18.6,22.2,19.4,21.3,19.4L21.3,19.4z M21.3,3.9
	C13.6,3.8,7.4,10,7.3,17.6c-0.1,7.6,6.1,13.9,13.7,14c7.6,0.1,13.9-6.1,14-13.7c0,0,0-0.1,0-0.1C35,10.1,28.9,3.9,21.3,3.9L21.3,3.9
	z M29,24.7l-0.4-0.4c-0.2-0.2-0.6-0.2-0.8,0c0,0,0,0,0,0c-0.2,0.2-0.2,0.6,0,0.8l0.4,0.4c-1.6,1.4-3.5,2.3-5.6,2.6L21.5,26
	c-0.1-0.3-0.4-0.3-0.5,0L20,28.1c-2.1-0.3-4.1-1.2-5.6-2.6l0.4-0.4c0.2-0.2,0.2-0.6,0-0.8c-0.2-0.2-0.6-0.2-0.8,0c0,0,0,0,0,0
	l-0.4,0.4c-1.4-1.6-2.3-3.6-2.6-5.7l2.2-1.1c0.3-0.1,0.3-0.4,0-0.5l-2.2-1.1c0.3-2.1,1.2-4.1,2.6-5.7l0.4,0.4c0.2,0.2,0.6,0.2,0.8,0
	c0,0,0,0,0,0c0.2-0.2,0.2-0.6,0-0.8l-0.4-0.4c1.6-1.4,3.5-2.3,5.6-2.6L21,9.5c0.1,0.3,0.4,0.3,0.5,0l1.1-2.2
	c2.1,0.3,4.1,1.2,5.6,2.6l-0.4,0.4c-0.2,0.2-0.2,0.6,0,0.8c0.2,0.2,0.6,0.2,0.8,0c0,0,0,0,0,0l0.4-0.4c1.4,1.6,2.3,3.6,2.6,5.7
	l-2.2,1.1c-0.3,0.1-0.3,0.4,0,0.5l2.2,1.1C31.3,21.2,30.4,23.2,29,24.7L29,24.7z M31.4,36.1c-0.7-0.7-1.8-0.6-2.4,0.1c0,0,0,0,0,0
	l-5.1,5.5c-0.5,0.6-1.3,0.9-2.1,0.7c-0.9-0.2-4.8-1.3-4.8-1.3c-0.6-0.2-1.1-0.5-1.6-0.9c-0.8-0.8,0.1-1,0.1-1l4.9-1.5
	c0.8-0.1,1.4-0.8,1.6-1.6c0-0.7-0.6-1.3-1.3-1.3c0,0,0,0,0,0l-8.5,0.3c-0.8,0-1.6,0.4-2.1,1L0,47.1L6.3,53l5-5.4l11.2-0.5
	c1-0.2,1.9-0.7,2.5-1.5l6.5-7C32.1,37.9,32.1,36.8,31.4,36.1L31.4,36.1z"/>
</svg>
