<svg xmlns="http://www.w3.org/2000/svg" width="41" height="47" viewBox="0 0 41 47">
  <metadata><?xpacket begin="﻿" id="W5M0MpCehiHzreSzNTczkc9d"?>
<x:xmpmeta xmlns:x="adobe:ns:meta/" x:xmptk="Adobe XMP Core 5.6-c142 79.160924, 2017/07/13-01:06:39        ">
   <rdf:RDF xmlns:rdf="http://www.w3.org/1999/02/22-rdf-syntax-ns#">
      <rdf:Description rdf:about=""/>
   </rdf:RDF>
</x:xmpmeta>
                                                                                                    
                                                                                                    
                                                                                                    
                                                                                                    
                                                                                                    
                                                                                                    
                                                                                                    
                                                                                                    
                                                                                                    
                                                                                                    
                                                                                                    
                                                                                                    
                                                                                                    
                                                                                                    
                                                                                                    
                                                                                                    
                                                                                                    
                                                                                                    
                                                                                                    
                                                                                                    
                           
<?xpacket end="w"?></metadata>
<defs>
    <style>
      .cls-1 {
        fill: #fff;
        fill-rule: evenodd;
      }
    </style>
  </defs>
  <path id="ic-written-map" class="cls-1" d="M525.3,395.519l-6.87-20.228a1.936,1.936,0,1,0-3.656,1.273l0.847,2.441-0.5-.414a7.768,7.768,0,0,0-1.256,7.18,6.394,6.394,0,0,0,3.268,3.431c1.122,0.668,2.048,1.235,2.421,2.469a1.274,1.274,0,0,0-.923-0.034,1.289,1.289,0,0,0-.512,2.107l-0.154.318a2.269,2.269,0,0,0,1.772.192c0.042-.015.083-0.03,0.124-0.048a1.956,1.956,0,0,0,.8-0.652l0.977,3.237a10.219,10.219,0,0,0,1.769,2.748h0l2.389,3.329-0.167-4.825h0A9.627,9.627,0,0,0,525.3,395.519Zm-7.5-7.428a5.207,5.207,0,0,1-2.707-2.744,6.38,6.38,0,0,1,.789-5.6l3.175,9.154A14.37,14.37,0,0,0,517.8,388.091Zm27.134,30.064L541,398.46a3.692,3.692,0,0,0-3.464-2.845H527.4l1.448,4.352h1.3l-3.475,6.527,0.983,0.984c0.4,0.2,1.207.594,2.228,1.053-2.8.725-6.727,2.316-8.928,5.737l-7-7.478a62.891,62.891,0,0,0,5.5-3.263c-0.385-.583-0.775-1.193-1.165-1.821a66.643,66.643,0,0,1-7.3,3.974l1.141-5.713h8.748l-2.9-4.352h-7.241l0.054,0.08a3.72,3.72,0,0,0-2.794,2.765l-3.932,19.695A2.289,2.289,0,0,0,506.4,421h36.2A2.289,2.289,0,0,0,544.932,418.155ZM508.8,416.648l1.685-8.443c0.47-.172.918-0.341,1.34-0.508l8.378,8.951H508.8Zm20.116-10.974c1.147-1.685,2.386-3.634,3.536-5.707h4.385l1.842,9.142C536.493,408.98,531.978,407.176,528.92,405.674Zm-5.734,10.974-1.2-1.281c2.444-4.153,7.972-5.467,10.249-5.839a21.2,21.2,0,0,0,6.741,1.756c0.05,0,.094-0.006.142-0.008l1.082,5.372H523.186Z" transform="translate(-504 -374)"/>
</svg>
