<?xml version="1.0" encoding="utf-8"?>
<!-- Generator: Adobe Illustrator 25.2.1, SVG Export Plug-In . SVG Version: 6.00 Build 0)  -->
<svg version="1.1" id="Layer_1" xmlns="http://www.w3.org/2000/svg" xmlns:xlink="http://www.w3.org/1999/xlink" x="0px" y="0px"
	 viewBox="0 0 41 47" style="enable-background:new 0 0 41 47;" xml:space="preserve">
<style type="text/css">
	.st0{fill-rule:evenodd;clip-rule:evenodd;}
</style>
<path id="ic-written-map" class="st0" d="M21.3,21.5L14.4,1.3c-0.3-1-1.4-1.6-2.4-1.2s-1.6,1.4-1.2,2.4c0,0,0,0,0,0.1L11.6,5
	l-0.5-0.4c-1.6,2-2.1,4.7-1.3,7.2c0.6,1.5,1.8,2.7,3.3,3.4c1.1,0.7,2,1.2,2.4,2.5c-0.3-0.1-0.6-0.1-0.9,0c-0.7,0.2-1,1-0.8,1.6
	c0.1,0.2,0.2,0.3,0.3,0.5L14,20.1c0.5,0.3,1.2,0.4,1.8,0.2c0,0,0.1,0,0.1,0c0.3-0.1,0.6-0.4,0.8-0.7l1,3.2c0.4,1,1,1.9,1.8,2.7l0,0
	l2.4,3.3L21.6,24l0,0C21.6,23.2,21.5,22.3,21.3,21.5z M13.8,14.1c-1.2-0.5-2.2-1.5-2.7-2.7c-0.6-1.9-0.3-4,0.8-5.6l3.2,9.2
	C14.7,14.6,14.2,14.3,13.8,14.1z M40.9,44.2L37,24.5c-0.4-1.6-1.8-2.8-3.5-2.8H23.4l1.4,4.4h1.3l-3.5,6.5l1,1
	c0.4,0.2,1.2,0.6,2.2,1.1c-2.8,0.7-6.7,2.3-8.9,5.7l-7-7.5c1.9-1,3.7-2.1,5.5-3.3c-0.4-0.6-0.8-1.2-1.2-1.8c-2.3,1.5-4.8,2.8-7.3,4
	L8.1,26h8.7L14,21.6H6.7l0.1,0.1C5.4,22,4.3,23.1,4,24.5L0.1,44.2c-0.3,1.2,0.4,2.5,1.7,2.8C1.9,47,2.2,47,2.4,47h36.2
	c1.3,0.1,2.3-0.9,2.4-2.2C41,44.6,41,44.4,40.9,44.2L40.9,44.2z M4.8,42.6l1.7-8.4C7,34,7.4,33.9,7.8,33.7l8.4,9H4.8z M24.9,31.7
	c1.1-1.7,2.4-3.6,3.5-5.7h4.4l1.8,9.1C32.5,35,28,33.2,24.9,31.7L24.9,31.7z M19.2,42.6L18,41.4c2.4-4.2,8-5.5,10.2-5.8
	c2.1,1,4.4,1.5,6.7,1.8c0,0,0.1,0,0.1,0l1.1,5.4L19.2,42.6L19.2,42.6z"/>
</svg>
