<?xml version="1.0" encoding="utf-8"?>
<!-- Generator: Adobe Illustrator 25.2.1, SVG Export Plug-In . SVG Version: 6.00 Build 0)  -->
<svg version="1.1" id="Layer_1" xmlns="http://www.w3.org/2000/svg" xmlns:xlink="http://www.w3.org/1999/xlink" x="0px" y="0px"
	 viewBox="0 0 34 40" style="enable-background:new 0 0 34 40;" xml:space="preserve">
<style type="text/css">
	.st0{fill-rule:evenodd;clip-rule:evenodd;}
</style>
<path id="ic-shield" class="st0" d="M33.9,7.1c0-0.7-0.6-1.2-1.2-1.3c-6-0.2-10.7-2-14.8-5.5c-0.5-0.4-1.3-0.4-1.8,0
	C12,3.9,7.3,5.6,1.3,5.8h0c-0.4,0-0.8,0-1.2,0c0,0.3,0,0.6,0,0.9c0,0.1,0,0.2,0,0.3C0,18.3-1.6,33.5,16.6,39.9
	c0.3,0.1,0.6,0.1,0.9,0c1.3-0.4,2.5-1,3.7-1.6c3.8-1.7,7-4.5,9.2-8.1C34.7,23.2,34,14.3,33.9,7.1z M15.4,28L7,19.8l3.8-3.7l4.7,4.5
	l8.8-8.6l3.8,3.7L15.4,28z"/>
</svg>
