<svg xmlns="http://www.w3.org/2000/svg" width="34" height="40" viewBox="0 0 34 40">
  <metadata><?xpacket begin="﻿" id="W5M0MpCehiHzreSzNTczkc9d"?>
<x:xmpmeta xmlns:x="adobe:ns:meta/" x:xmptk="Adobe XMP Core 5.6-c142 79.160924, 2017/07/13-01:06:39        ">
   <rdf:RDF xmlns:rdf="http://www.w3.org/1999/02/22-rdf-syntax-ns#">
      <rdf:Description rdf:about=""/>
   </rdf:RDF>
</x:xmpmeta>





















<?xpacket end="w"?></metadata>
<defs>
    <style>
      .cls-1 {
        fill: #fff;
        fill-rule: evenodd;
      }
    </style>
  </defs>
  <path id="ic-shield" class="cls-1" d="M543.919,553.109a1.287,1.287,0,0,0-1.249-1.262c-5.969-.21-10.716-1.96-14.786-5.525a1.372,1.372,0,0,0-1.764,0c-4.07,3.565-8.816,5.315-14.785,5.525l-0.024,0c-0.386.012-.777,0.019-1.173,0.019,0,0.3,0,.61,0,0.919a1.272,1.272,0,0,0-.047.322c-0.133,11.176-1.651,26.364,16.46,32.819a1.445,1.445,0,0,0,.913,0,33.164,33.164,0,0,0,3.661-1.551,20.277,20.277,0,0,0,9.171-8.1C544.663,569.159,544.005,560.3,543.919,553.109ZM525.4,574l-8.42-8.234,3.77-3.685,4.65,4.547,8.838-8.642,3.77,3.686Z" transform="translate(-510 -546)"/>
</svg>
